{
  "asset": {
    "generator": "Khronos glTF Blender I/O v4.4.56",
    "version": "2.0"
  },
  "extensionsUsed": [
    "KHR_materials_specular",
    "KHR_materials_sheen"
  ],
  "scene": 0,
  "scenes": [
    {
      "name": "Scene",
      "nodes": [
        0
      ]
    }
  ],
  "nodes": [
    {
      "mesh": 0,
      "name": "sphere_gltf"
    }
  ],
  "materials": [
    {
      "doubleSided": true,
      "extensions": {
        "KHR_materials_specular": {
          "specularTexture": {
            "index": 0
          }
        },
        "KHR_materials_sheen": {
          "sheenColorFactor": [
            1,
            1,
            1
          ],
          "sheenRoughnessFactor": 0.5
        }
      },
      "name": "faux_fur_geometric",
      "normalTexture": {
        "index": 1
      },
      "pbrMetallicRoughness": {
        "baseColorTexture": {
          "index": 2
        },
        "metallicRoughnessTexture": {
          "index": 3
        }
      }
    }
  ],
  "meshes": [
    {
      "name": "Sphere.001",
      "primitives": [
        {
          "attributes": {
            "POSITION": 0,
            "NORMAL": 1,
            "TEXCOORD_0": 2
          },
          "indices": 3,
          "material": 0
        }
      ]
    }
  ],
  "textures": [
    {
      "sampler": 0,
      "source": 0
    },
    {
      "sampler": 0,
      "source": 1
    },
    {
      "sampler": 0,
      "source": 2
    },
    {
      "sampler": 0,
      "source": 3
    }
  ],
  "images": [
    {
      "mimeType": "image/jpeg",
      "name": "faux_fur_geometric_spec_ior",
      "uri": "textures/faux_fur_geometric_spec_ior_4k.jpg"
    },
    {
      "mimeType": "image/jpeg",
      "name": "faux_fur_geometric_nor_gl",
      "uri": "textures/faux_fur_geometric_nor_gl_4k.jpg"
    },
    {
      "mimeType": "image/jpeg",
      "name": "faux_fur_geometric_diff",
      "uri": "textures/faux_fur_geometric_diff_4k.jpg"
    },
    {
      "mimeType": "image/jpeg",
      "name": "faux_fur_geometric_metal-faux_fur_geometric_rough",
      "uri": "textures/faux_fur_geometric_arm_4k.jpg"
    }
  ],
  "accessors": [
    {
      "bufferView": 0,
      "componentType": 5126,
      "count": 53891,
      "max": [
        0.1510089784860611,
        0.1510578691959381,
        0.1508854180574417
      ],
      "min": [
        -0.15100903809070587,
        -0.1508714258670807,
        -0.15088331699371338
      ],
      "type": "VEC3"
    },
    {
      "bufferView": 1,
      "componentType": 5126,
      "count": 53891,
      "type": "VEC3"
    },
    {
      "bufferView": 2,
      "componentType": 5126,
      "count": 53891,
      "type": "VEC2"
    },
    {
      "bufferView": 3,
      "componentType": 5123,
      "count": 322170,
      "type": "SCALAR"
    }
  ],
  "bufferViews": [
    {
      "buffer": 0,
      "byteLength": 646692,
      "byteOffset": 0,
      "target": 34962
    },
    {
      "buffer": 0,
      "byteLength": 646692,
      "byteOffset": 646692,
      "target": 34962
    },
    {
      "buffer": 0,
      "byteLength": 431128,
      "byteOffset": 1293384,
      "target": 34962
    },
    {
      "buffer": 0,
      "byteLength": 644340,
      "byteOffset": 1724512,
      "target": 34963
    }
  ],
  "samplers": [
    {
      "magFilter": 9729,
      "minFilter": 9987
    }
  ],
  "buffers": [
    {
      "byteLength": 2368852,
      "uri": "faux_fur_geometric.bin"
    }
  ]
}