<?xml version="1.0" ?><!DOCTYPE svg  PUBLIC '-//W3C//DTD SVG 1.1//EN'  'http://www.w3.org/Graphics/SVG/1.1/DTD/svg11.dtd'><svg enable-background="new 0 0 128 128" id="Слой_1" version="1.1" viewBox="0 0 128 128" xml:space="preserve" xmlns="http://www.w3.org/2000/svg" xmlns:xlink="http://www.w3.org/1999/xlink"><g><g><g><g><path d="M114,39.5l-20-23l-20-6H48l-20,6l-20,23l14,13l5-5l0,65h0c11.3,3.3,22,5,33.7,5h0.6      c11.8,0,22.4-1.7,33.7-5h0l0-65l5,5L114,39.5z" fill="#AF66AA"/></g></g></g><g><g><g><g><polygon fill="#FFFFFF" points="35,18.5 56,10.5 48,10.5 28,16.5 8,39.5 22,52.5 25.8,48.6 16,39.5      "/></g></g></g><g><g><g><path d="M35,112.5l0-51.4c0-3.6-1.9-6.8-5-8.6l0,0l-3-2.8l0,62.8h0c11.3,3.3,18.1,5,8,2L35,112.5z" fill="#FFFFFF"/></g></g></g></g><g><g><g><path d="M61.3,119h-0.6c-11.6,0-22.4-1.6-34.1-5.1c-0.6-0.2-1.1-0.8-1.1-1.4V51.1l-2.4,2.4      c-0.6,0.6-1.5,0.6-2.1,0l-14-13c-0.6-0.6-0.6-1.5-0.1-2.1l20-23c0.2-0.2,0.4-0.4,0.7-0.5l20-6C47.7,9,47.9,9,48,9h26      c0.1,0,0.3,0,0.4,0.1l20,6c0.3,0.1,0.5,0.2,0.7,0.5l20,23c0.5,0.6,0.5,1.5-0.1,2.1l-14,13c-0.6,0.5-1.5,0.5-2.1,0l-2.4-2.4v61.4      c0,0.7-0.4,1.3-1.1,1.4C83.7,117.4,72.8,119,61.3,119z M28.5,111.4c11,3.2,21.3,4.6,32.2,4.6h0.6c10.9,0,21.2-1.5,32.2-4.6V47.5      c0-0.6,0.4-1.2,0.9-1.4c0.6-0.2,1.2-0.1,1.6,0.3l4,4l11.9-11L93.2,17.8L73.8,12H48.2l-19.4,5.8L10.1,39.4l11.9,11l4-4      c0.4-0.4,1.1-0.6,1.6-0.3c0.6,0.2,0.9,0.8,0.9,1.4V111.4z" fill="#62355C"/></g></g></g><g><g><g><g><path d="M96,49.5c-0.3,0-0.5-0.1-0.7-0.3c-0.4-0.4-0.4-1,0.1-1.4l0.4-0.3c0.4-0.4,1-0.4,1.4,0.1       c0.4,0.4,0.4,1-0.1,1.4l-0.4,0.3C96.5,49.4,96.2,49.5,96,49.5z" fill="#62355C"/></g></g></g><g><g><g><path d="M99.2,46.6c-0.3,0-0.5-0.1-0.7-0.3c-0.4-0.4-0.4-1,0.1-1.4l0.7-0.6c0.4-0.4,1-0.4,1.4,0.1       c0.4,0.4,0.4,1-0.1,1.4l-0.7,0.6C99.7,46.5,99.4,46.6,99.2,46.6z M102.7,43.3c-0.3,0-0.5-0.1-0.7-0.3c-0.4-0.4-0.4-1,0.1-1.4       l0.7-0.6c0.4-0.4,1-0.4,1.4,0.1c0.4,0.4,0.4,1-0.1,1.4l-0.7,0.6C103.1,43.2,102.9,43.3,102.7,43.3z M106.1,40.1       c-0.3,0-0.5-0.1-0.7-0.3c-0.4-0.4-0.4-1,0.1-1.4l0.7-0.6c0.4-0.4,1-0.4,1.4,0.1c0.4,0.4,0.4,1-0.1,1.4l-0.7,0.6       C106.6,40,106.4,40.1,106.1,40.1z" fill="#62355C"/></g></g></g><g><g><g><path d="M109.6,36.8c-0.3,0-0.5-0.1-0.7-0.3c-0.4-0.4-0.4-1,0.1-1.4l0.4-0.3c0.4-0.4,1-0.4,1.4,0.1       c0.4,0.4,0.4,1-0.1,1.4l-0.4,0.3C110.1,36.7,109.9,36.8,109.6,36.8z" fill="#62355C"/></g></g></g></g><g><g><g><g><path d="M12.4,36.8c-0.2,0-0.5-0.1-0.7-0.3l-0.4-0.3c-0.4-0.4-0.4-1-0.1-1.4c0.4-0.4,1-0.4,1.4-0.1l0.4,0.3       c0.4,0.4,0.4,1,0.1,1.4C12.9,36.7,12.6,36.8,12.4,36.8z" fill="#62355C"/></g></g></g><g><g><g><path d="M22.8,46.6c-0.2,0-0.5-0.1-0.7-0.3l-0.7-0.6c-0.4-0.4-0.4-1-0.1-1.4c0.4-0.4,1-0.4,1.4-0.1l0.7,0.6       c0.4,0.4,0.4,1,0.1,1.4C23.4,46.5,23.1,46.6,22.8,46.6z M19.3,43.3c-0.2,0-0.5-0.1-0.7-0.3L18,42.4c-0.4-0.4-0.4-1-0.1-1.4       c0.4-0.4,1-0.4,1.4-0.1l0.7,0.6c0.4,0.4,0.4,1,0.1,1.4C19.9,43.2,19.6,43.3,19.3,43.3z M15.9,40.1c-0.2,0-0.5-0.1-0.7-0.3       l-0.7-0.6c-0.4-0.4-0.4-1-0.1-1.4c0.4-0.4,1-0.4,1.4-0.1l0.7,0.6c0.4,0.4,0.4,1,0.1,1.4C16.4,40,16.1,40.1,15.9,40.1z" fill="#62355C"/></g></g></g><g><g><g><path d="M26,49.5c-0.2,0-0.5-0.1-0.7-0.3l-0.4-0.3c-0.4-0.4-0.4-1-0.1-1.4c0.4-0.4,1-0.4,1.4-0.1l0.4,0.3       c0.4,0.4,0.4,1,0.1,1.4C26.5,49.4,26.3,49.5,26,49.5z" fill="#62355C"/></g></g></g></g></g><g><g><g><path d="M63.2,35L50.8,52.4l2.2,2.6h10.3v8h5V35H63.2z M58.5,50l4.7-6.8V50H58.5z" fill="#FFFFFF"/></g></g></g></svg>